<svg width="200" height="56" viewBox="0 0 200 56" fill="none" xmlns="http://www.w3.org/2000/svg">
<g clip-path="url(#clip0_1_7)">
<path d="M62.3945 27.2192V28.4995C62.3945 30.5529 62.1162 32.396 61.5596 34.0288C61.0029 35.6616 60.2174 37.0532 59.2031 38.2036C58.1888 39.3416 56.9766 40.2137 55.5664 40.8198C54.1686 41.4259 52.6162 41.729 50.9092 41.729C49.2145 41.729 47.6621 41.4259 46.252 40.8198C44.8542 40.2137 43.6419 39.3416 42.6152 38.2036C41.5885 37.0532 40.7907 35.6616 40.2217 34.0288C39.665 32.396 39.3867 30.5529 39.3867 28.4995V27.2192C39.3867 25.1535 39.665 23.3104 40.2217 21.6899C40.7783 20.0571 41.5638 18.6655 42.5781 17.5151C43.6048 16.3647 44.8171 15.4865 46.2148 14.8804C47.625 14.2743 49.1774 13.9712 50.8721 13.9712C52.5791 13.9712 54.1315 14.2743 55.5293 14.8804C56.9395 15.4865 58.1517 16.3647 59.166 17.5151C60.1927 18.6655 60.9844 20.0571 61.541 21.6899C62.11 23.3104 62.3945 25.1535 62.3945 27.2192ZM56.7725 28.4995V27.1821C56.7725 25.7472 56.6426 24.4855 56.3828 23.397C56.123 22.3084 55.7396 21.3931 55.2324 20.6509C54.7253 19.9087 54.1068 19.3521 53.377 18.981C52.6471 18.5975 51.8122 18.4058 50.8721 18.4058C49.932 18.4058 49.097 18.5975 48.3672 18.981C47.6497 19.3521 47.0374 19.9087 46.5303 20.6509C46.0355 21.3931 45.6582 22.3084 45.3984 23.397C45.1387 24.4855 45.0088 25.7472 45.0088 27.1821V28.4995C45.0088 29.922 45.1387 31.1838 45.3984 32.2847C45.6582 33.3732 46.0417 34.2948 46.5488 35.0493C47.056 35.7915 47.6745 36.3543 48.4043 36.7378C49.1341 37.1213 49.9691 37.313 50.9092 37.313C51.8493 37.313 52.6842 37.1213 53.4141 36.7378C54.1439 36.3543 54.7562 35.7915 55.251 35.0493C55.7458 34.2948 56.123 33.3732 56.3828 32.2847C56.6426 31.1838 56.7725 29.922 56.7725 28.4995ZM71.4121 25.6606V41.3579H66.0684V21.2817H71.0967L71.4121 25.6606ZM77.4609 21.1519L77.3682 26.106C77.1084 26.0688 76.793 26.0379 76.4219 26.0132C76.0632 25.9761 75.7354 25.9575 75.4385 25.9575C74.6839 25.9575 74.0283 26.0565 73.4717 26.2544C72.9274 26.4399 72.4697 26.7183 72.0986 27.0894C71.7399 27.4604 71.4678 27.9119 71.2822 28.4438C71.109 28.9757 71.0101 29.5819 70.9854 30.2622L69.9092 29.9282C69.9092 28.6294 70.0391 27.4357 70.2988 26.3472C70.5586 25.2463 70.9359 24.2876 71.4307 23.4712C71.9378 22.6548 72.5563 22.0239 73.2861 21.5786C74.016 21.1333 74.8509 20.9106 75.791 20.9106C76.0879 20.9106 76.391 20.9354 76.7002 20.9849C77.0094 21.022 77.263 21.0776 77.4609 21.1519ZM92.323 21.2817H97.166V40.6899C97.166 42.5207 96.758 44.0731 95.941 45.3472C95.137 46.6336 94.012 47.6047 92.564 48.2603C91.1172 48.9282 89.4349 49.2622 87.5176 49.2622C86.6764 49.2622 85.7858 49.1509 84.8457 48.9282C83.918 48.7056 83.0273 48.3592 82.1738 47.8892C81.3327 47.4191 80.6276 46.8254 80.0586 46.1079L82.415 42.9536C83.0335 43.6711 83.751 44.2277 84.5674 44.6235C85.3838 45.0317 86.2868 45.2358 87.2764 45.2358C88.2412 45.2358 89.0576 45.0565 89.7256 44.6978C90.3936 44.3514 90.9069 43.8381 91.2656 43.1577C91.6243 42.4897 91.8037 41.6795 91.8037 40.7271V25.9204L92.323 21.2817ZM78.8154 31.561V31.1714C78.8154 29.6375 79.001 28.2459 79.3721 26.9966C79.7555 25.7349 80.2936 24.6525 80.9863 23.7495C81.6914 22.8465 82.5449 22.1476 83.5469 21.6528C84.5488 21.158 85.6807 20.9106 86.9424 20.9106C88.2783 20.9106 89.3978 21.158 90.3008 21.6528C91.2038 22.1476 91.946 22.8527 92.527 23.7681C93.109 24.6711 93.56 25.741 93.882 26.978C94.216 28.2026 94.476 29.5448 94.661 31.0044V31.8579C94.476 33.2557 94.197 34.5545 93.826 35.7544C93.455 36.9543 92.966 38.0057 92.36 38.9087C91.7542 39.7993 90.9997 40.492 90.0967 40.9868C89.2061 41.4816 88.1423 41.729 86.9053 41.729C85.6683 41.729 84.5488 41.4754 83.5469 40.9683C82.5573 40.4611 81.71 39.7498 81.0049 38.8345C80.2998 37.9191 79.7555 36.8429 79.3721 35.606C79.001 34.369 78.8154 33.0207 78.8154 31.561ZM84.1592 31.1714V31.561C84.1592 32.3898 84.2396 33.1629 84.4004 33.8804C84.5612 34.5978 84.8086 35.2349 85.1426 35.7915C85.4889 36.3358 85.9157 36.7625 86.4229 37.0718C86.9424 37.3687 87.5547 37.5171 88.2598 37.5171C89.237 37.5171 90.0348 37.313 90.6533 36.9048C91.2718 36.4842 91.7357 35.909 92.045 35.1792C92.354 34.4494 92.534 33.6082 92.583 32.6558V30.2251C92.558 29.4458 92.453 28.7469 92.268 28.1284C92.082 27.4976 91.8223 26.9595 91.4883 26.5142C91.1543 26.0688 90.7214 25.7225 90.1895 25.4751C89.6576 25.2277 89.0267 25.104 88.2969 25.104C87.5918 25.104 86.9795 25.2648 86.46 25.5864C85.9528 25.8957 85.526 26.3224 85.1797 26.8667C84.8457 27.411 84.5921 28.0542 84.4189 28.7964C84.2458 29.5262 84.1592 30.3179 84.1592 31.1714ZM112.158 36.8306V27.8872C112.158 27.244 112.053 26.6935 111.843 26.2358C111.632 25.7658 111.305 25.4009 110.859 25.1411C110.426 24.8813 109.864 24.7515 109.171 24.7515C108.577 24.7515 108.064 24.8566 107.631 25.0669C107.198 25.2648 106.864 25.5555 106.629 25.939C106.394 26.3101 106.276 26.7492 106.276 27.2563H100.933C100.933 26.4028 101.131 25.5926 101.526 24.8257C101.922 24.0588 102.497 23.3846 103.252 22.8032C104.007 22.2095 104.903 21.7456 105.942 21.4116C106.994 21.0776 108.169 20.9106 109.468 20.9106C111.026 20.9106 112.412 21.1704 113.624 21.6899C114.836 22.2095 115.789 22.9888 116.481 24.0278C117.187 25.0669 117.539 26.3657 117.539 27.9243V36.5151C117.539 37.616 117.607 38.519 117.743 39.2241C117.879 39.9168 118.077 40.5229 118.337 41.0425V41.3579H112.938C112.678 40.8136 112.48 40.1333 112.344 39.3169C112.22 38.4881 112.158 37.6593 112.158 36.8306ZM112.863 29.1304L112.9 32.1548H109.913C109.208 32.1548 108.596 32.2352 108.076 32.396C107.557 32.5568 107.13 32.7856 106.796 33.0825C106.462 33.367 106.215 33.701 106.054 34.0845C105.905 34.4679 105.831 34.8885 105.831 35.3462C105.831 35.8039 105.936 36.2183 106.146 36.5894C106.357 36.9481 106.66 37.2326 107.056 37.4429C107.451 37.6408 107.915 37.7397 108.447 37.7397C109.251 37.7397 109.95 37.5789 110.544 37.2573C111.138 36.9357 111.595 36.5399 111.917 36.0698C112.251 35.5998 112.424 35.1545 112.437 34.7339L113.847 36.9976C113.649 37.5047 113.377 38.0304 113.03 38.5747C112.696 39.119 112.27 39.6323 111.75 40.1147C111.23 40.5848 110.606 40.9744 109.876 41.2837C109.146 41.5806 108.28 41.729 107.278 41.729C106.004 41.729 104.848 41.4754 103.809 40.9683C102.782 40.4487 101.965 39.7375 101.359 38.8345C100.766 37.9191 100.469 36.88 100.469 35.7173C100.469 34.6659 100.667 33.7319 101.062 32.9155C101.458 32.0991 102.04 31.4126 102.807 30.856C103.586 30.2869 104.557 29.8602 105.72 29.5757C106.882 29.2788 108.231 29.1304 109.765 29.1304H112.863ZM126.891 25.5679V41.3579H121.547V21.2817H126.557L126.891 25.5679ZM126.111 30.6147H124.664C124.664 29.1304 124.856 27.7944 125.239 26.6069C125.623 25.4071 126.161 24.3866 126.854 23.5454C127.546 22.6919 128.369 22.0425 129.321 21.5972C130.286 21.1395 131.362 20.9106 132.55 20.9106C133.49 20.9106 134.35 21.0467 135.129 21.3188C135.908 21.591 136.576 22.0239 137.133 22.6177C137.702 23.2114 138.135 23.9969 138.432 24.9741C138.741 25.9513 138.896 27.145 138.896 28.5552V41.3579H133.515V28.5366C133.515 27.646 133.391 26.9533 133.144 26.4585C132.896 25.9637 132.531 25.6174 132.049 25.4194C131.579 25.2091 130.997 25.104 130.305 25.104C129.587 25.104 128.963 25.2463 128.431 25.5308C127.911 25.8153 127.478 26.2111 127.132 26.7183C126.798 27.2131 126.544 27.7944 126.371 28.4624C126.198 29.1304 126.111 29.8478 126.111 30.6147ZM148.6 21.2817V41.3579H143.237V21.2817H148.6ZM142.903 16.0493C142.903 15.27 143.175 14.6268 143.72 14.1196C144.264 13.6125 144.994 13.3589 145.909 13.3589C146.812 13.3589 147.536 13.6125 148.08 14.1196C148.637 14.6268 148.915 15.27 148.915 16.0493C148.915 16.8286 148.637 17.4718 148.08 17.979C147.536 18.4862 146.812 18.7397 145.909 18.7397C144.994 18.7397 144.264 18.4862 143.72 17.979C143.175 17.4718 142.903 16.8286 142.903 16.0493ZM161.31 37.5542C161.965 37.5542 162.547 37.4305 163.054 37.1831C163.561 36.9233 163.957 36.5646 164.241 36.1069C164.538 35.6369 164.693 35.0864 164.705 34.4556H169.733C169.721 35.8657 169.344 37.1213 168.602 38.2222C167.859 39.3107 166.864 40.1704 165.614 40.8013C164.365 41.4198 162.967 41.729 161.421 41.729C159.862 41.729 158.502 41.4692 157.339 40.9497C156.188 40.4302 155.23 39.7127 154.463 38.7974C153.696 37.8696 153.121 36.7935 152.737 35.5688C152.354 34.3319 152.162 33.0083 152.162 31.5981V31.0601C152.162 29.6375 152.354 28.314 152.737 27.0894C153.121 25.8524 153.696 24.7762 154.463 23.8608C155.23 22.9331 156.188 22.2095 157.339 21.6899C158.489 21.1704 159.838 20.9106 161.384 20.9106C163.029 20.9106 164.47 21.2261 165.707 21.8569C166.956 22.4878 167.934 23.3908 168.639 24.5659C169.356 25.7287 169.721 27.1079 169.733 28.7036H164.705C164.693 28.0356 164.55 27.4295 164.278 26.8853C164.019 26.341 163.635 25.908 163.128 25.5864C162.633 25.2524 162.021 25.0854 161.291 25.0854C160.512 25.0854 159.875 25.2524 159.38 25.5864C158.885 25.908 158.502 26.3534 158.229 26.9224C157.957 27.479 157.766 28.116 157.654 28.8335C157.555 29.5386 157.506 30.2808 157.506 31.0601V31.5981C157.506 32.3774 157.555 33.1258 157.654 33.8433C157.753 34.5607 157.939 35.1978 158.211 35.7544C158.495 36.311 158.885 36.7502 159.38 37.0718C159.875 37.3934 160.518 37.5542 161.31 37.5542ZM178.176 12.8394V41.3579H172.832V12.8394H178.176ZM190.83 21.2817L182.109 31.2271L177.434 35.9585L175.485 32.0991L179.196 27.3862L184.41 21.2817H190.83ZM185.282 41.3579L179.345 32.0806L183.037 28.8521L191.442 41.3579H185.282Z" fill="#274C5B"/>
<path fill-rule="evenodd" clip-rule="evenodd" d="M-6.14929 42.9263V40.9263H28.7313V42.9263H-6.14929Z" fill="#7EB693"/>
<path fill-rule="evenodd" clip-rule="evenodd" d="M-2.20898 49.3579V47.3579H24.791V49.3579H-2.20898Z" fill="#7EB693"/>
<path fill-rule="evenodd" clip-rule="evenodd" d="M9.791 1.35791H11.791V15.3579H9.791V1.35791Z" fill="#7EB693"/>
<path fill-rule="evenodd" clip-rule="evenodd" d="M9.8656 41.0737V14.6421H11.8656V41.0737H9.8656Z" fill="#7EB693"/>
<path fill-rule="evenodd" clip-rule="evenodd" d="M10.1577 14.7886L21.2174 3.70432L22.6332 5.11696L11.5735 16.2012L10.1577 14.7886Z" fill="#7EB693"/>
<path fill-rule="evenodd" clip-rule="evenodd" d="M10.1577 23.3149L25.4711 7.96751L26.8869 9.38015L11.5735 24.7275L10.1577 23.3149Z" fill="#7EB693"/>
<path fill-rule="evenodd" clip-rule="evenodd" d="M10.1751 31.8239L28.0408 14.7712L29.4218 16.218L11.5561 33.2707L10.1751 31.8239Z" fill="#7EB693"/>
<path fill-rule="evenodd" clip-rule="evenodd" d="M10.1577 41.2201L28.8741 22.4622L30.2899 23.8748L11.5735 42.6327L10.1577 41.2201Z" fill="#7EB693"/>
<path fill-rule="evenodd" clip-rule="evenodd" d="M18.6652 41.2201L28.8742 30.9885L30.29 32.4011L20.081 42.6327L18.6652 41.2201Z" fill="#7EB693"/>
<path fill-rule="evenodd" clip-rule="evenodd" d="M2.50111 42.6327L-7.70789 32.4011L-6.29211 30.9885L3.91689 41.2201L2.50111 42.6327Z" fill="#7EB693"/>
<path fill-rule="evenodd" clip-rule="evenodd" d="M10.13 16.1724L-0.0788727 5.08811L1.39224 3.73317L11.6012 14.8174L10.13 16.1724Z" fill="#7EB693"/>
<path fill-rule="evenodd" clip-rule="evenodd" d="M10.1378 24.707L-4.32482 9.35965L-2.86928 7.98801L11.5934 23.3354L10.1378 24.707Z" fill="#7EB693"/>
<path fill-rule="evenodd" clip-rule="evenodd" d="M10.1407 33.2363L-6.87419 15.331L-5.42439 13.9532L11.5905 31.8585L10.1407 33.2363Z" fill="#7EB693"/>
<path fill-rule="evenodd" clip-rule="evenodd" d="M10.1416 41.7635L-7.72412 23.0056L-6.27588 21.6262L11.5898 40.3841L10.1416 41.7635Z" fill="#7EB693"/>
<path fill-rule="evenodd" clip-rule="evenodd" d="M11.291 2C1.77214 2 -6 9.97633 -6 19.8806V35.8351C-6 45.7413 1.77208 53.7158 11.291 53.7158C20.8119 53.7158 28.5838 45.7412 28.5821 35.8353V19.8806C28.5821 9.97627 20.8117 2 11.291 2ZM-8 19.8806C-8 8.93205 0.608238 0 11.291 0C21.9757 0 30.5821 8.93211 30.5821 19.8806V35.8349C30.5821 35.835 30.5821 35.8349 30.5821 35.8349C30.5839 46.7857 21.9754 55.7158 11.291 55.7158C0.608298 55.7158 -8 46.7857 -8 35.8351V19.8806Z" fill="#7EB693"/>
</g>
<defs>
<clipPath id="clip0_1_7">
<rect width="200" height="56" fill="white"/>
</clipPath>
</defs>
</svg>
